<svg xmlns="http://www.w3.org/2000/svg" width="643.4" height="225.992" viewBox="0 0 643.4 225.992">
  <defs>
    <style>
      .cls-1 {
        opacity: 0.361;
      }

      .cls-2 {
        fill: #ced8e5;
      }

      .cls-2, .cls-4, .cls-6 {
        stroke: rgba(0,0,0,0);
      }

      .cls-2, .cls-3, .cls-4, .cls-5, .cls-6, .cls-7, .cls-8 {
        stroke-width: 2.4px;
      }

      .cls-3 {
        fill: rgba(249,253,255,0);
      }

      .cls-3, .cls-5, .cls-7 {
        stroke: #cbd6e3;
      }

      .cls-3, .cls-5, .cls-7, .cls-8 {
        stroke-linejoin: round;
      }

      .cls-4, .cls-6 {
        fill: #cbd6e3;
      }

      .cls-5 {
        fill: rgba(255,213,101,0);
      }

      .cls-6 {
        opacity: 0.302;
      }

      .cls-7 {
        fill: rgba(193,168,146,0);
      }

      .cls-8 {
        fill: none;
        stroke: #c5d0dd;
        stroke-linecap: round;
      }
    </style>
  </defs>
  <g id="_illustration1" data-name=" illustration1" class="cls-1" transform="translate(1.2 1.2)">
    <g id="_illustration" data-name=" illustration">
      <rect id="圆角矩形_16" data-name="圆角矩形 16" class="cls-2" width="633" height="3" rx="1.5" transform="translate(8 0)"/>
      <g id="city_illustration" data-name="city illustration" transform="translate(0 2)">
        <g id="建筑1" transform="translate(24 0)">
          <rect id="圆角矩形_6" data-name="圆角矩形 6" class="cls-3" width="52" height="136.001" rx="4" transform="translate(0 0)"/>
          <rect id="圆角矩形_6_拷贝_2" data-name="圆角矩形 6 拷贝 2" class="cls-3" width="10" height="14" rx="2" transform="translate(10 110.001)"/>
          <rect id="圆角矩形_6_拷贝_3" data-name="圆角矩形 6 拷贝 3" class="cls-3" width="12" height="14" rx="2" transform="translate(30 110.001)"/>
          <rect id="圆角矩形_6_拷贝_4" data-name="圆角矩形 6 拷贝 4" class="cls-3" width="10" height="13" rx="2" transform="translate(10 87.001)"/>
          <rect id="圆角矩形_6_拷贝_4-2" data-name="圆角矩形 6 拷贝 4" class="cls-3" width="12" height="13" rx="2" transform="translate(30 87.001)"/>
          <rect id="圆角矩形_6_拷贝_5" data-name="圆角矩形 6 拷贝 5" class="cls-3" width="10" height="13" rx="2" transform="translate(10 64.001)"/>
          <rect id="圆角矩形_6_拷贝_5-2" data-name="圆角矩形 6 拷贝 5" class="cls-3" width="12" height="13" rx="2" transform="translate(30 64.001)"/>
          <rect id="圆角矩形_6_拷贝_6" data-name="圆角矩形 6 拷贝 6" class="cls-3" width="10" height="13" rx="2" transform="translate(10 39)"/>
          <rect id="圆角矩形_6_拷贝_6-2" data-name="圆角矩形 6 拷贝 6" class="cls-3" width="12" height="13" rx="2" transform="translate(30 39)"/>
          <rect id="圆角矩形_6_拷贝_7" data-name="圆角矩形 6 拷贝 7" class="cls-3" width="24" height="29" rx="2" transform="translate(14 0)"/>
          <rect id="圆角矩形_7" data-name="圆角矩形 7" class="cls-4" width="34" height="4" rx="2" transform="translate(9 27)"/>
        </g>
        <g id="建筑1_copy" data-name="建筑1 copy" transform="translate(205 0)">
          <rect id="圆角矩形_6-2" data-name="圆角矩形 6" class="cls-3" width="53" height="136.001" rx="4" transform="translate(0 0)"/>
          <rect id="圆角矩形_6_拷贝_2-2" data-name="圆角矩形 6 拷贝 2" class="cls-3" width="10" height="14" rx="2" transform="translate(11 110.001)"/>
          <rect id="圆角矩形_6_拷贝_3-2" data-name="圆角矩形 6 拷贝 3" class="cls-3" width="10" height="14" rx="2" transform="translate(31 110.001)"/>
          <rect id="圆角矩形_6_拷贝_4-3" data-name="圆角矩形 6 拷贝 4" class="cls-3" width="10" height="13" rx="2" transform="translate(11 87.001)"/>
          <rect id="圆角矩形_6_拷贝_4-4" data-name="圆角矩形 6 拷贝 4" class="cls-3" width="10" height="13" rx="2" transform="translate(31 87.001)"/>
          <rect id="圆角矩形_6_拷贝_5-3" data-name="圆角矩形 6 拷贝 5" class="cls-3" width="10" height="13" rx="2" transform="translate(11 64.001)"/>
          <rect id="圆角矩形_6_拷贝_5-4" data-name="圆角矩形 6 拷贝 5" class="cls-3" width="10" height="13" rx="2" transform="translate(31 64.001)"/>
          <rect id="圆角矩形_6_拷贝_6-3" data-name="圆角矩形 6 拷贝 6" class="cls-3" width="10" height="13" rx="2" transform="translate(11 39)"/>
          <rect id="圆角矩形_6_拷贝_6-4" data-name="圆角矩形 6 拷贝 6" class="cls-3" width="10" height="13" rx="2" transform="translate(31 39)"/>
          <rect id="圆角矩形_6_拷贝_7-2" data-name="圆角矩形 6 拷贝 7" class="cls-3" width="23" height="29" rx="2" transform="translate(15 0)"/>
          <rect id="圆角矩形_7-2" data-name="圆角矩形 7" class="cls-4" width="33" height="4" rx="2" transform="translate(10 27)"/>
        </g>
        <g id="建筑1_copy_2" data-name="建筑1 copy 2" transform="translate(261 0)">
          <rect id="圆角矩形_6-3" data-name="圆角矩形 6" class="cls-3" width="50" height="136.001" rx="4"/>
          <rect id="圆角矩形_6_拷贝_2-3" data-name="圆角矩形 6 拷贝 2" class="cls-3" width="10" height="14" rx="2" transform="translate(10 110.001)"/>
          <rect id="圆角矩形_6_拷贝_3-3" data-name="圆角矩形 6 拷贝 3" class="cls-3" width="10" height="14" rx="2" transform="translate(30 110.001)"/>
          <rect id="圆角矩形_6_拷贝_4-5" data-name="圆角矩形 6 拷贝 4" class="cls-3" width="10" height="13" rx="2" transform="translate(10 87.001)"/>
          <rect id="圆角矩形_6_拷贝_4-6" data-name="圆角矩形 6 拷贝 4" class="cls-3" width="10" height="13" rx="2" transform="translate(30 87.001)"/>
          <rect id="圆角矩形_6_拷贝_5-5" data-name="圆角矩形 6 拷贝 5" class="cls-3" width="10" height="13" rx="2" transform="translate(10 64)"/>
          <rect id="圆角矩形_6_拷贝_5-6" data-name="圆角矩形 6 拷贝 5" class="cls-3" width="10" height="13" rx="2" transform="translate(30 64)"/>
          <rect id="圆角矩形_6_拷贝_6-5" data-name="圆角矩形 6 拷贝 6" class="cls-3" width="10" height="13" rx="2" transform="translate(10 39)"/>
          <rect id="圆角矩形_6_拷贝_6-6" data-name="圆角矩形 6 拷贝 6" class="cls-3" width="10" height="13" rx="2" transform="translate(30 39)"/>
          <rect id="圆角矩形_6_拷贝_6_copy" data-name="圆角矩形 6 拷贝 6 copy" class="cls-3" width="10" height="14" rx="2" transform="translate(10 13)"/>
          <rect id="圆角矩形_6_拷贝_6_copy-2" data-name="圆角矩形 6 拷贝 6 copy" class="cls-3" width="10" height="14" rx="2" transform="translate(30 13)"/>
        </g>
        <g id="建筑2" transform="translate(89 0)">
          <rect id="圆角矩形_6-4" data-name="圆角矩形 6" class="cls-3" width="51" height="187.001" rx="4" transform="translate(0 0)"/>
          <rect id="圆角矩形_8" data-name="圆角矩形 8" class="cls-5" width="36" height="7" rx="2" transform="translate(7 174.001)"/>
          <rect id="圆角矩形_8_拷贝" data-name="圆角矩形 8 拷贝" class="cls-5" width="36" height="6" rx="2" transform="translate(7 160.001)"/>
          <rect id="圆角矩形_8_拷贝_2" data-name="圆角矩形 8 拷贝 2" class="cls-5" width="36" height="7" rx="2" transform="translate(7 146.001)"/>
          <rect id="圆角矩形_8_拷贝_2-2" data-name="圆角矩形 8 拷贝 2" class="cls-5" width="36" height="7" rx="2" transform="translate(7 133.001)"/>
          <rect id="圆角矩形_8_拷贝_3" data-name="圆角矩形 8 拷贝 3" class="cls-5" width="36" height="6" rx="2" transform="translate(7 119.001)"/>
          <rect id="圆角矩形_8_拷贝_3-2" data-name="圆角矩形 8 拷贝 3" class="cls-5" width="36" height="7" rx="2" transform="translate(7 105.001)"/>
          <rect id="圆角矩形_8_拷贝_3-3" data-name="圆角矩形 8 拷贝 3" class="cls-5" width="36" height="7" rx="2" transform="translate(7 92.001)"/>
          <rect id="圆角矩形_8_拷贝_3-4" data-name="圆角矩形 8 拷贝 3" class="cls-5" width="36" height="6" rx="2" transform="translate(7 79.001)"/>
          <rect id="圆角矩形_8_拷贝_4" data-name="圆角矩形 8 拷贝 4" class="cls-5" width="36" height="7" rx="2" transform="translate(7 65.001)"/>
          <rect id="圆角矩形_8_拷贝_4-2" data-name="圆角矩形 8 拷贝 4" class="cls-5" width="36" height="7" rx="2" transform="translate(7 51)"/>
          <rect id="圆角矩形_8_拷贝_4-3" data-name="圆角矩形 8 拷贝 4" class="cls-5" width="36" height="7" rx="2" transform="translate(7 37)"/>
          <path id="矩形_1" data-name="矩形 1" class="cls-6" d="M153.3,251.606l1.477-6.805L136,226.026v8.534Z" transform="translate(-110.645 -221.2)"/>
          <rect id="圆角矩形_8_拷贝_4-4" data-name="圆角矩形 8 拷贝 4" class="cls-5" width="36" height="31" rx="2" transform="translate(7 0)"/>
          <rect id="圆角矩形_9" data-name="圆角矩形 9" class="cls-4" width="4" height="31" rx="2" transform="translate(23 0)"/>
        </g>
        <g id="建筑2_copy" data-name="建筑2 copy" transform="translate(362 0)">
          <rect id="圆角矩形_6-5" data-name="圆角矩形 6" class="cls-3" width="52" height="187.001" rx="4" transform="translate(0 0)"/>
          <rect id="圆角矩形_8-2" data-name="圆角矩形 8" class="cls-5" width="38" height="7" rx="2" transform="translate(8 174.001)"/>
          <rect id="圆角矩形_8_拷贝-2" data-name="圆角矩形 8 拷贝" class="cls-5" width="38" height="6" rx="2" transform="translate(8 160.001)"/>
          <rect id="圆角矩形_8_拷贝_2-3" data-name="圆角矩形 8 拷贝 2" class="cls-5" width="38" height="7" rx="2" transform="translate(8 146.001)"/>
          <rect id="圆角矩形_8_拷贝_2-4" data-name="圆角矩形 8 拷贝 2" class="cls-5" width="38" height="7" rx="2" transform="translate(8 133.001)"/>
          <rect id="圆角矩形_8_拷贝_3-5" data-name="圆角矩形 8 拷贝 3" class="cls-5" width="38" height="6" rx="2" transform="translate(8 119.001)"/>
          <rect id="圆角矩形_8_拷贝_3-6" data-name="圆角矩形 8 拷贝 3" class="cls-5" width="38" height="7" rx="2" transform="translate(8 105.001)"/>
          <rect id="圆角矩形_8_拷贝_3-7" data-name="圆角矩形 8 拷贝 3" class="cls-5" width="38" height="7" rx="2" transform="translate(8 92.001)"/>
          <rect id="圆角矩形_8_拷贝_3-8" data-name="圆角矩形 8 拷贝 3" class="cls-5" width="38" height="6" rx="2" transform="translate(8 79.001)"/>
          <rect id="圆角矩形_8_拷贝_4-5" data-name="圆角矩形 8 拷贝 4" class="cls-5" width="38" height="7" rx="2" transform="translate(8 65.001)"/>
          <rect id="圆角矩形_8_拷贝_4-6" data-name="圆角矩形 8 拷贝 4" class="cls-5" width="38" height="7" rx="2" transform="translate(8 51)"/>
          <rect id="圆角矩形_8_拷贝_4-7" data-name="圆角矩形 8 拷贝 4" class="cls-5" width="38" height="7" rx="2" transform="translate(8 37)"/>
          <path id="矩形_1-2" data-name="矩形 1" class="cls-6" d="M447.3,251.606l1.477-6.805L430,226.026v8.534Z" transform="translate(-404.175 -221.2)"/>
          <rect id="圆角矩形_8_拷贝_4-8" data-name="圆角矩形 8 拷贝 4" class="cls-5" width="38" height="31" rx="2" transform="translate(8 0)"/>
          <rect id="圆角矩形_9-2" data-name="圆角矩形 9" class="cls-4" width="3" height="31" rx="1.5" transform="translate(25 0)"/>
        </g>
        <g id="树" transform="translate(274.914 0)">
          <g id="组_7" data-name="组 7" transform="translate(0 25.308)">
            <path id="椭圆_8" data-name="椭圆 8" class="cls-7" d="M570.188,222.618c12.254,0,22.188-19.054,22.188-34.136S582.443,168,570.188,168,548,173.4,548,188.482,557.934,222.618,570.188,222.618Z" transform="translate(-321.009 -168)"/>
            <path id="圆角矩形_21" data-name="圆角矩形 21" class="cls-4" d="M3.414,23.041V16.53L1.592,18.34a.849.849,0,0,1-1.166.315.863.863,0,0,1-.312-1.174l3.3-3.28V.853a.853.853,0,1,1,1.706,0V14.287l3.3,5.754a.862.862,0,0,1-.312,1.174A.849.849,0,0,1,6.942,20.9L5.12,17.724v5.317a.853.853,0,0,1-1.706,0Z" transform="translate(0 86.192)"/>
          </g>
          <g id="组_7_拷贝" data-name="组 7 拷贝" transform="translate(192.855 0)">
            <path id="椭圆_8-2" data-name="椭圆 8" class="cls-7" d="M521.654,240.429c7.541,0,13.654-11.313,13.654-20.268S529.2,208,521.654,208,508,211.206,508,220.161,514.113,240.429,521.654,240.429Z" transform="translate(-508 -194.64)"/>
            <rect id="圆角矩形_21-2" data-name="圆角矩形 21" class="cls-4" width="3" height="21" rx="1.5" transform="translate(12.23)"/>
          </g>
        </g>
        <g id="sun" transform="translate(267.238 174.002)">
          <ellipse id="椭圆_1" data-name="椭圆 1" class="cls-5" cx="12" cy="12" rx="12" ry="12" transform="translate(245.762 0)"/>
          <path id="圆角矩形_15" data-name="圆角矩形 15" class="cls-4" d="M11.93,24.719V23.013a.853.853,0,1,1,1.706,0v1.706a.853.853,0,1,1-1.706,0Zm8.688-2.892-1.207-1.207a.853.853,0,1,1,1.207-1.207l1.207,1.207a.853.853,0,0,1-1.207,1.207Zm-16.876,0a.854.854,0,0,1,0-1.207l1.207-1.207a.853.853,0,1,1,1.207,1.207L4.949,21.828a.854.854,0,0,1-1.207,0ZM.853,13.642a.853.853,0,1,1,0-1.706H2.56a.853.853,0,1,1,0,1.706Zm22.156,0a.853.853,0,1,1,0-1.706h1.707a.853.853,0,0,1,0,1.706Zm-3.6-7.481a.854.854,0,0,1,0-1.207l1.207-1.207a.853.853,0,0,1,1.207,1.207L20.618,6.159a.852.852,0,0,1-1.207,0Zm-14.462,0L3.742,4.952A.853.853,0,0,1,4.949,3.745L6.156,4.952A.853.853,0,1,1,4.949,6.159Zm6.981-3.6V.853a.853.853,0,0,1,1.706,0V2.561a.853.853,0,0,1-1.706,0Z" transform="translate(0 17.75)"/>
        </g>
        <path id="形状_4" data-name="形状 4" class="cls-8" d="M2,16H49.79m15.361,0h8.534" transform="translate(-2 193.644)"/>
        <path id="形状_4_拷贝" data-name="形状 4 拷贝" class="cls-8" d="M624,84h24.9m15.736,0h7.153m10.241,0h3.414" transform="translate(-57.237 67.612)"/>
        <path id="形状_4_拷贝_2" data-name="形状 4 拷贝 2" class="cls-8" d="M528.083,2h-14.66M502.807,2h-7.153M485.414,2H482" transform="translate(-45.407 219.591)"/>
      </g>
    </g>
  </g>
</svg>
