<svg xmlns="http://www.w3.org/2000/svg" width="25" height="25.104" viewBox="0 0 25 25.104">
  <defs>
    <style>
      .cls-1 {
        fill: #2a77ff;
        stroke: #2a77ff;
      }

      .cls-2 {
        fill: #666;
        stroke: #666;
      }
    </style>
  </defs>
  <g id="ic_edit" transform="translate(-84.8 -84.696)">
    <path id="路径_27461" data-name="路径 27461" class="cls-1" d="M419.034,85.721l-13.35,13.35a1.272,1.272,0,0,0,1.8,1.8l13.35-13.35a1.272,1.272,0,0,0-1.8-1.8" transform="translate(-311.907 -0.048)"/>
    <path id="路径_27462" data-name="路径 27462" class="cls-2" d="M109.3,99.7v4.8a4.8,4.8,0,0,1-4.8,4.8H90.1a4.8,4.8,0,0,1-4.8-4.8V90.1a4.8,4.8,0,0,1,4.8-4.8h4.8a1.2,1.2,0,0,1,0,2.4H90.1a2.4,2.4,0,0,0-2.4,2.4v14.4a2.4,2.4,0,0,0,2.4,2.4h14.4a2.4,2.4,0,0,0,2.4-2.4V99.7a1.2,1.2,0,1,1,2.4,0Z" transform="translate(0)"/>
  </g>
</svg>
