<svg xmlns="http://www.w3.org/2000/svg" width="20" height="20" viewBox="0 0 20 20">
  <defs>
    <style>
      .cls-1 {
        fill: #ddd;
      }

      .cls-2 {
        fill: #fff;
      }
    </style>
  </defs>
  <g id="ic_help" transform="translate(-1683 -355)">
    <circle id="椭圆_233" data-name="椭圆 233" class="cls-1" cx="10" cy="10" r="10" transform="translate(1683 355)"/>
    <path id="路径_28693" data-name="路径 28693" class="cls-2" d="M2.73-3.388H3.878C3.5-5.5,6.454-5.95,6.454-8.092a2.531,2.531,0,0,0-2.842-2.562A4.159,4.159,0,0,0,.462-9.142l.756.7A3.037,3.037,0,0,1,3.472-9.6,1.541,1.541,0,0,1,5.208-7.98C5.208-6.384,2.3-5.74,2.73-3.388ZM2.2-1.036A1.089,1.089,0,0,0,3.332.07a1.077,1.077,0,0,0,1.12-1.106,1.066,1.066,0,0,0-1.12-1.092A1.077,1.077,0,0,0,2.2-1.036Z" transform="translate(1689.538 370.652)"/>
  </g>
</svg>
