<svg xmlns="http://www.w3.org/2000/svg" width="24" height="24" viewBox="0 0 24 24">
  <defs>
    <style>
      .cls-1, .cls-2 {
        fill: #666;
      }

      .cls-1 {
        stroke: #707070;
        opacity: 0;
      }

      .cls-3 {
        stroke: none;
      }

      .cls-4 {
        fill: none;
      }
    </style>
  </defs>
  <g id="ic_setup_n" transform="translate(0 0.002)">
    <g id="矩形_963" data-name="矩形 963" class="cls-1" transform="translate(0 -0.002)">
      <rect class="cls-3" width="24" height="24"/>
      <rect class="cls-4" x="0.5" y="0.5" width="23" height="23"/>
    </g>
    <path id="路径_27459" data-name="路径 27459" class="cls-2" d="M76.385,116.134a3.623,3.623,0,0,1-3.122-.976,3.451,3.451,0,0,1-.994-3.058,3.529,3.529,0,0,1,2.91-2.857,3.619,3.619,0,0,1,3.132.974,3.45,3.45,0,0,1,.991,3.068,3.53,3.53,0,0,1-2.918,2.849m8.372-2.253,1.682-1.03a.718.718,0,0,0,.329-.775l-.823-3.54a.731.731,0,0,0-.64-.558l-1.975-.214a.738.738,0,0,1-.5-.268l-.331-.408a.715.715,0,0,1-.155-.535l.227-1.929a.725.725,0,0,0-.413-.737l-3.339-1.575a.759.759,0,0,0-.846.14l-1.4,1.376a.751.751,0,0,1-.525.214h-.528A.749.749,0,0,1,75,103.83l-1.4-1.376a.749.749,0,0,0-.846-.14l-3.336,1.575a.723.723,0,0,0-.413.737l.227,1.932a.718.718,0,0,1-.155.535l-.329.4a.738.738,0,0,1-.5.268l-1.975.217a.733.733,0,0,0-.64.558l-.826,3.537a.718.718,0,0,0,.329.775l1.682,1.032a.726.726,0,0,1,.329.454l.117.507a.715.715,0,0,1-.094.548l-1.06,1.644a.713.713,0,0,0,.048.838l2.312,2.837a.748.748,0,0,0,.823.232l1.873-.645a.75.75,0,0,1,.566.031l.477.224a.72.72,0,0,1,.377.415l.652,1.835a.742.742,0,0,0,.7.487h3.7a.737.737,0,0,0,.7-.487l.652-1.835a.736.736,0,0,1,.377-.415l.477-.224a.75.75,0,0,1,.566-.031l1.873.645a.747.747,0,0,0,.823-.232l2.312-2.837a.717.717,0,0,0,.048-.838L84.4,115.39a.716.716,0,0,1-.1-.548l.117-.5a.741.741,0,0,1,.334-.456" transform="translate(-63.786 -101.091)"/>
  </g>
</svg>
