<svg xmlns="http://www.w3.org/2000/svg" xmlns:xlink="http://www.w3.org/1999/xlink" width="54" height="54" viewBox="0 0 54 54">
  <defs>
    <style>
      .cls-1, .cls-4 {
        fill: #fff;
      }

      .cls-1 {
        stroke: #707070;
      }

      .cls-2 {
        clip-path: url(#clip-path);
      }

      .cls-3 {
        fill: url(#linear-gradient);
      }

      .cls-5 {
        fill: #5592fe;
      }

      .cls-6 {
        filter: url(#路径_27460);
      }
    </style>
    <clipPath id="clip-path">
      <rect id="矩形_1830" data-name="矩形 1830" class="cls-1" width="54" height="54" transform="translate(1.068 1)"/>
    </clipPath>
    <linearGradient id="linear-gradient" x1="0.5" x2="0.809" y2="0.893" gradientUnits="objectBoundingBox">
      <stop offset="0" stop-color="#5592fe"/>
      <stop offset="1" stop-color="#2a77ff"/>
    </linearGradient>
    <filter id="路径_27460" x="-2" y="-0.999" width="58" height="58" filterUnits="userSpaceOnUse">
      <feOffset dy="1" input="SourceAlpha"/>
      <feGaussianBlur stdDeviation="3" result="blur"/>
      <feFlood flood-color="#5592fe" flood-opacity="0.686"/>
      <feComposite operator="in" in2="blur"/>
      <feComposite in="SourceGraphic"/>
    </filter>
  </defs>
  <g id="ic_team_addman" transform="translate(-1.068 -1)">
    <g id="蒙版组_37" data-name="蒙版组 37" class="cls-2">
      <g id="ic_invitation" transform="translate(8.068 8.001)">
        <g class="cls-6" transform="matrix(1, 0, 0, 1, -7, -7)">
          <path id="路径_27460-2" data-name="路径 27460" class="cls-3" d="M20,0A20,20,0,1,1,0,20,20,20,0,0,1,20,0Z" transform="translate(7 7)"/>
        </g>
        <circle id="椭圆_10" data-name="椭圆 10" class="cls-4" cx="5.541" cy="5.541" r="5.541" transform="translate(14.771 8.78)"/>
        <path id="减去_1" data-name="减去 1" class="cls-4" d="M19.512,8.78H0A7.98,7.98,0,0,1,.767,5.362,8.76,8.76,0,0,1,2.857,2.572,9.848,9.848,0,0,1,5.958.69a10.8,10.8,0,0,1,7.6,0,9.847,9.847,0,0,1,3.1,1.882,8.764,8.764,0,0,1,2.091,2.791,7.979,7.979,0,0,1,.767,3.417Z" transform="translate(10.244 21.951)"/>
        <circle id="椭圆_12" data-name="椭圆 12" class="cls-5" cx="6.829" cy="6.829" r="6.829" transform="translate(21.25 21.875)"/>
        <g id="组_2212" data-name="组 2212" transform="translate(23.125 23.75)">
          <rect id="矩形_967" data-name="矩形 967" class="cls-4" width="10" height="1.429" rx="0.714" transform="translate(0 4.286)"/>
          <rect id="矩形_968" data-name="矩形 968" class="cls-4" width="10" height="1.429" rx="0.714" transform="translate(5.714) rotate(90)"/>
        </g>
      </g>
    </g>
  </g>
</svg>
