<svg id="icon_home_myclass" xmlns="http://www.w3.org/2000/svg" width="60" height="60" viewBox="0 0 60 60">
  <defs>
    <style>
      .cls-1 {
        fill: #b8a5ff;
      }

      .cls-2 {
        fill: #fff;
      }
    </style>
  </defs>
  <path id="路径_27449" data-name="路径 27449" class="cls-1" d="M30,0A30,30,0,1,1,0,30,30,30,0,0,1,30,0Z"/>
  <path id="路径_27451" data-name="路径 27451" class="cls-2" d="M110.567,95.955v4.263H112.9a3.954,3.954,0,0,1,2.735,1.15,3.764,3.764,0,0,1,1.134,2.72v12.787a3.764,3.764,0,0,1-1.134,2.72,3.973,3.973,0,0,1-2.735,1.15H91.613a3.95,3.95,0,0,1-2.735-1.15,3.764,3.764,0,0,1-1.134-2.72V103.906a3.873,3.873,0,0,1,3.869-3.869h2.328V95.955H89.679a1.935,1.935,0,0,1-1.406-.513,1.885,1.885,0,0,1-.528-1.422v-.181A1.818,1.818,0,0,1,89.679,91.9H114.83a1.818,1.818,0,0,1,1.935,1.935v.181a1.9,1.9,0,0,1-.528,1.422,1.931,1.931,0,0,1-1.406.513Zm-2.116,14.509a1.862,1.862,0,0,0-1.935-1.935H97.993a1.862,1.862,0,0,0-1.935,1.935v.212a1.862,1.862,0,0,0,1.935,1.935h8.524a1.862,1.862,0,0,0,1.935-1.935Zm-1.935-10.246V95.955H98.2v4.263Z" transform="translate(-72.224 -76.109)"/>
</svg>
