<svg xmlns="http://www.w3.org/2000/svg" width="60" height="60" viewBox="0 0 60 60">
  <defs>
    <style>
      .cls-1 {
        fill: #f45a5c;
      }

      .cls-2 {
        fill: #fff;
      }
    </style>
  </defs>
  <g id="icon_home_mytask" transform="translate(-0.25 -0.25)">
    <circle id="椭圆_7" data-name="椭圆 7" class="cls-1" cx="30" cy="30" r="30" transform="translate(0.25 0.25)"/>
    <path id="减去_22" data-name="减去 22" class="cls-2" d="M16.274,29.839h-.346v-.353a4.529,4.529,0,0,0-4.141-2.7h-.1a4.721,4.721,0,0,0-.506.025v-.025H10.166v-.032H4.3A4.3,4.3,0,0,1,0,22.46V4.3A4.3,4.3,0,0,1,4.3,0h7.738V.018A4.683,4.683,0,0,1,16.1,3.413,4.684,4.684,0,0,1,20.167.018V0H27.9a4.292,4.292,0,0,1,4.3,4.3V22.463a4.3,4.3,0,0,1-4.3,4.3h-5.87v.032H21.015v.025a4.715,4.715,0,0,0-.506-.025h-.09a4.534,4.534,0,0,0-4.146,2.695v.352Zm2.093-13a1.125,1.125,0,0,0-.8,1.921l3.181,3.182a1.126,1.126,0,0,0,1.591,0l5.834-5.834a1.125,1.125,0,0,0-1.591-1.591l-5.038,5.038-2.386-2.387A1.12,1.12,0,0,0,18.367,16.839ZM4.5,13.639a1.5,1.5,0,1,0,0,3h9a1.5,1.5,0,0,0,0-3Zm14.25-6.75a1.5,1.5,0,1,0,0,3h9a1.5,1.5,0,1,0,0-3Zm-14.25,0a1.5,1.5,0,1,0,0,3h9a1.5,1.5,0,0,0,0-3Z" transform="translate(14.25 16.362)"/>
  </g>
</svg>
