<svg id="icon_home_mycourse" xmlns="http://www.w3.org/2000/svg" width="60" height="60" viewBox="0 0 60 60">
  <defs>
    <style>
      .cls-1 {
        fill: #5592fe;
      }

      .cls-2 {
        fill: #fff;
      }
    </style>
  </defs>
  <circle id="椭圆_4" data-name="椭圆 4" class="cls-1" cx="30" cy="30" r="30"/>
  <path id="路径_27452" data-name="路径 27452" class="cls-2" d="M160.446,82.675a.992.992,0,0,0-1.094,1.011V107.07a2.265,2.265,0,0,1-2.189,2.016H137.926c-1.312,0-2.841-1-2.841-2.016v-2.214c0-1.011,1.312-1.613,2.624-1.613h18.36a.992.992,0,0,0,1.094-1.011V82.477c0-2.221-1.747-3.629-4.371-3.629H137.926c-2.406,0-4.806,1.21-4.806,3.629v25.412c.218,1.817,2.182,3.232,4.153,3.43h19.89a4.2,4.2,0,0,0,4.371-3.84V83.686A1.126,1.126,0,0,0,160.446,82.675Zm-4.16,22.584H138.368a1.011,1.011,0,1,0,0,1.99h17.919a1.011,1.011,0,1,0,0-2.016Z" transform="translate(-116.952 -64.722)"/>
</svg>
