<svg id="icon_home_myteam" xmlns="http://www.w3.org/2000/svg" width="60" height="60" viewBox="0 0 60 60">
  <defs>
    <style>
      .cls-1 {
        fill: #ffbc13;
      }

      .cls-2 {
        fill: #fff;
      }
    </style>
  </defs>
  <circle id="椭圆_6" data-name="椭圆 6" class="cls-1" cx="30" cy="30" r="30"/>
  <path id="路径_27450" data-name="路径 27450" class="cls-2" d="M83.337,148.718a5.4,5.4,0,1,0-5.4-5.4A5.4,5.4,0,0,0,83.337,148.718Zm3.431.973-3.393,3.985-3.385-3.964c-3.553,1.594-6.082,5.587-6.082,10.28a12.732,12.732,0,0,0,.151,1.887,12.5,12.5,0,0,0,18.682,0,13.325,13.325,0,0,0,.151-1.887C92.883,155.278,90.341,151.276,86.768,149.691Zm3.834-6.375c0,.1-.008.206-.017.31a5,5,0,1,0-2.215-5.545A7.245,7.245,0,0,1,90.6,143.315Zm-17.453,1.053a4.953,4.953,0,0,0,2.911-.952.8.8,0,0,0,0-.1,7.269,7.269,0,0,1,1.98-4.975,5,5,0,1,0-4.891,6.027Zm23.212.906-3.142,3.683L90.27,145.5a7.3,7.3,0,0,1-1.808,2.961,13.065,13.065,0,0,1,6.3,11.53c0,.109-.008.222-.017.34a10.722,10.722,0,0,0,7.135-3.783,12,12,0,0,0,.138-1.749A10.258,10.258,0,0,0,96.36,145.274ZM78.266,148.5a7.247,7.247,0,0,1-1.929-3.225l0,0-3.142,3.683-3.129-3.666a10.283,10.283,0,0,0-5.625,9.513,12,12,0,0,0,.138,1.749,10.8,10.8,0,0,0,7.479,3.821c0-.126-.008-.252-.008-.377A13.089,13.089,0,0,1,78.266,148.5Z" transform="translate(-53.167 -118.832)"/>
</svg>
