<svg xmlns="http://www.w3.org/2000/svg" xmlns:xlink="http://www.w3.org/1999/xlink" width="300" height="190" viewBox="0 0 300 190">
  <defs>
    <style>
      .cls-1 {
        fill: #484848;
        stroke: #707070;
        opacity: 0.35;
      }

      .cls-2 {
        clip-path: url(#clip-path);
      }

      .cls-3 {
        fill: url(#linear-gradient);
      }

      .cls-4 {
        fill: url(#linear-gradient-2);
      }

      .cls-5 {
        fill: url(#linear-gradient-3);
      }

      .cls-6 {
        fill: url(#linear-gradient-4);
      }

      .cls-7 {
        fill: url(#linear-gradient-5);
      }

      .cls-8 {
        fill: #7c7a79;
      }

      .cls-9 {
        fill: #b5b5b5;
      }

      .cls-10 {
        fill: #f1f2fa;
      }

      .cls-11 {
        fill: url(#linear-gradient-6);
      }

      .cls-12 {
        fill: url(#radial-gradient);
      }

      .cls-13 {
        opacity: 0.33;
        fill: url(#linear-gradient-7);
      }

      .cls-14 {
        opacity: 0.19;
        fill: url(#linear-gradient-9);
      }

      .cls-15 {
        opacity: 0.42;
      }

      .cls-16 {
        fill: #bcbcbc;
      }

      .cls-17 {
        fill: #176eff;
      }

      .cls-18 {
        fill: #5893f7;
      }

      .cls-19 {
        fill: url(#linear-gradient-10);
      }

      .cls-20 {
        fill: url(#linear-gradient-12);
      }

      .cls-21 {
        fill: #eff3f5;
      }

      .cls-22 {
        fill: url(#linear-gradient-13);
      }
    </style>
    <clipPath id="clip-path">
      <rect id="矩形_1191" data-name="矩形 1191" class="cls-1" width="300" height="190" transform="translate(705 412.778)"/>
    </clipPath>
    <linearGradient id="linear-gradient" x1="0.884" y1="0.314" x2="0.421" y2="0.691" gradientUnits="objectBoundingBox">
      <stop offset="0" stop-color="#bac7ef"/>
      <stop offset="1" stop-color="#f1f2fa" stop-opacity="0"/>
    </linearGradient>
    <linearGradient id="linear-gradient-2" y1="0.138" x2="0.979" y2="0.697" gradientUnits="objectBoundingBox">
      <stop offset="0" stop-color="#f1f2fa"/>
      <stop offset="1" stop-color="#ced5db"/>
    </linearGradient>
    <linearGradient id="linear-gradient-3" x1="0.034" y1="0.034" x2="1" y2="1" gradientUnits="objectBoundingBox">
      <stop offset="0" stop-color="#d6ddf2"/>
      <stop offset="1" stop-color="#888d91"/>
    </linearGradient>
    <linearGradient id="linear-gradient-4" x1="0.034" y1="0.034" x2="1" y2="1" gradientUnits="objectBoundingBox">
      <stop offset="0" stop-color="#bac1c6"/>
      <stop offset="1" stop-color="#d6ddf2"/>
    </linearGradient>
    <linearGradient id="linear-gradient-5" x1="1.02" y1="0.465" x2="0" y2="0.637" gradientUnits="objectBoundingBox">
      <stop offset="0" stop-color="#fff"/>
      <stop offset="1" stop-color="#bbc8ee"/>
    </linearGradient>
    <linearGradient id="linear-gradient-6" x1="0.927" y1="0.5" x2="0.163" y2="0.343" gradientUnits="objectBoundingBox">
      <stop offset="0" stop-color="#f1f2fa"/>
      <stop offset="1" stop-color="#d0d8ee"/>
    </linearGradient>
    <radialGradient id="radial-gradient" cx="0.087" cy="0.412" r="1.074" gradientTransform="matrix(0.964, 0.266, 0.266, -0.964, -0.106, 0.786)" gradientUnits="objectBoundingBox">
      <stop offset="0" stop-color="#1862dd"/>
      <stop offset="1" stop-color="#598af6"/>
    </radialGradient>
    <linearGradient id="linear-gradient-7" x1="-0.308" y1="0.664" x2="0.5" gradientUnits="objectBoundingBox">
      <stop offset="0" stop-color="#fff"/>
      <stop offset="1" stop-color="gray"/>
    </linearGradient>
    <linearGradient id="linear-gradient-9" x1="1.308" y1="0.664" xlink:href="#linear-gradient-7"/>
    <linearGradient id="linear-gradient-10" x1="0.846" y1="0.133" x2="0.064" y2="1" gradientUnits="objectBoundingBox">
      <stop offset="0" stop-color="#f1f2fa"/>
      <stop offset="1" stop-color="#bdc6d5"/>
    </linearGradient>
    <linearGradient id="linear-gradient-12" x1="0.846" y1="0.867" x2="0.064" y2="0" xlink:href="#linear-gradient-10"/>
    <linearGradient id="linear-gradient-13" x1="0.5" x2="0.5" y2="1" gradientUnits="objectBoundingBox">
      <stop offset="0" stop-color="#e9eff2"/>
      <stop offset="1" stop-color="#fff"/>
    </linearGradient>
  </defs>
  <g id="img_empty_big" class="cls-2" transform="translate(-705 -412.778)">
    <g id="组_3269" data-name="组 3269" transform="translate(675.709 431.026)">
      <g id="组_3264" data-name="组 3264" transform="translate(0)">
        <g id="组_3256" data-name="组 3256" transform="translate(0 49.598)">
          <path id="路径_27351" data-name="路径 27351" class="cls-3" d="M24049.4,11588.613l-77.914,5.687-67.109,6.256,104.645-53.743Z" transform="translate(-23904.381 -11477.128)"/>
          <path id="路径_27352" data-name="路径 27352" class="cls-4" d="M24561.906,11459.066v67.473l-125.479,12.084.338-68.254Z" transform="translate(-24333.492 -11459.042)"/>
          <path id="路径_27353" data-name="路径 27353" class="cls-5" d="M24380.8,11498.287v-68.064l41.924,32.387-.148,68.111Z" transform="translate(-24277.584 -11418.815)"/>
          <path id="路径_27354" data-name="路径 27354" class="cls-6" d="M24380.473,11497.99v-67.955l42.168,32.528-.113,67.287Z" transform="translate(-24152.07 -11430.035)"/>
          <path id="路径_27355" data-name="路径 27355" class="cls-7" d="M24561.887,11459.066v67.473l-125.479,12.084-.062-68.271Z" transform="translate(-24291.412 -11426.745)"/>
          <path id="路径_27356" data-name="路径 27356" class="cls-8" d="M23349.766,12534.26l-8.049,22.162-2.924-3.705Z" transform="translate(-23204.789 -12490.526)"/>
          <path id="路径_27357" data-name="路径 27357" class="cls-9" d="M23357.566,12556.346l-2.164.049-2.062-22.248Z" transform="translate(-23208.41 -12490.499)"/>
        </g>
        <path id="路径_27358" data-name="路径 27358" class="cls-10" d="M24436.346,11470.371l5.51,28.73,126.213-12.248-6.215-27.814Z" transform="translate(-24291.412 -11377.141)"/>
        <path id="路径_27359" data-name="路径 27359" class="cls-11" d="M24376.426,11430.2l-16.365,24.637,42.352,34.234,15.729-26.549Z" transform="translate(-24273.174 -11369.212)"/>
        <g id="组_3257" data-name="组 3257" transform="translate(79.33 15.773)">
          <circle id="椭圆_140" data-name="椭圆 140" class="cls-12" cx="15.022" cy="15.022" r="15.022" transform="translate(9.013 0)"/>
          <circle id="椭圆_141" data-name="椭圆 141" class="cls-12" cx="7.511" cy="7.511" r="7.511" transform="translate(24.035 62.341)"/>
          <circle id="椭圆_142" data-name="椭圆 142" class="cls-12" cx="6.009" cy="6.009" r="6.009" transform="translate(187.774 20.28)"/>
          <circle id="椭圆_143" data-name="椭圆 143" class="cls-13" cx="7.887" cy="7.887" r="7.887" transform="matrix(0.602, -0.799, 0.799, 0.602, 154.008, 32.618)"/>
          <circle id="椭圆_144" data-name="椭圆 144" class="cls-13" cx="3.38" cy="3.38" r="3.38" transform="matrix(0.602, -0.799, 0.799, 0.602, 139.699, 49.11)"/>
          <circle id="椭圆_145" data-name="椭圆 145" class="cls-14" cx="3.38" cy="3.38" r="3.38" transform="translate(0 52.577)"/>
        </g>
        <g id="组_3263" data-name="组 3263" class="cls-15" transform="translate(63.557)">
          <g id="组_3258" data-name="组 3258" transform="translate(-0.001 45.817)">
            <rect id="矩形_1178" data-name="矩形 1178" class="cls-16" width="11.266" height="2.253" rx="1.127" transform="translate(0 4.507)"/>
            <rect id="矩形_1179" data-name="矩形 1179" class="cls-16" width="11.266" height="3.004" rx="1.502" transform="translate(4.507 11.266) rotate(-90)"/>
          </g>
          <g id="组_3259" data-name="组 3259" transform="translate(16.523 138.953)">
            <rect id="矩形_1180" data-name="矩形 1180" class="cls-16" width="11.266" height="3.004" rx="1.502" transform="translate(0 4.507)"/>
            <rect id="矩形_1181" data-name="矩形 1181" class="cls-16" width="11.266" height="3.004" rx="1.502" transform="translate(4.507 11.266) rotate(-90)"/>
          </g>
          <g id="组_3260" data-name="组 3260" transform="translate(81.118 0)">
            <rect id="矩形_1182" data-name="矩形 1182" class="cls-17" width="11.266" height="3.004" rx="1.502" transform="translate(0 3.755)"/>
            <rect id="矩形_1183" data-name="矩形 1183" class="cls-17" width="11.266" height="2.253" rx="1.127" transform="translate(4.507 11.266) rotate(-90)"/>
          </g>
          <g id="组_3261" data-name="组 3261" transform="translate(220.821 92.385)">
            <rect id="矩形_1184" data-name="矩形 1184" class="cls-18" width="11.266" height="2.253" rx="1.127" transform="translate(0 4.507)"/>
            <rect id="矩形_1185" data-name="矩形 1185" class="cls-18" width="11.266" height="3.004" rx="1.502" transform="translate(3.755 11.266) rotate(-90)"/>
          </g>
          <g id="组_3262" data-name="组 3262" transform="translate(210.306 18.777)">
            <rect id="矩形_1186" data-name="矩形 1186" class="cls-16" width="19.528" height="4.507" rx="2" transform="translate(0 7.511)"/>
            <rect id="矩形_1187" data-name="矩形 1187" class="cls-16" width="20.28" height="4.507" rx="2" transform="translate(7.511 20.28) rotate(-90)"/>
          </g>
        </g>
      </g>
      <path id="路径_27387" data-name="路径 27387" class="cls-19" d="M8.158,0H32.181a2.872,2.872,0,0,1,2.872,2.872s-5.632,6.929-5.632,14.5,5.632,15.788,5.632,15.788a2.872,2.872,0,0,1-2.872,2.872H8.158c-1.586,0-2.872-2.872-2.872-2.872S0,24.948,0,17.375s3.32-11.5,5.285-14.5S6.571,0,8.158,0Z" transform="translate(230.792 9.437) rotate(47)"/>
      <path id="路径_27388" data-name="路径 27388" class="cls-19" d="M5.044,0H19.9a1.776,1.776,0,0,1,1.776,1.776s-3.482,4.284-3.482,8.966S21.673,20.5,21.673,20.5A1.776,1.776,0,0,1,19.9,22.28H5.044A1.776,1.776,0,0,1,3.268,20.5S0,15.424,0,10.742,3.268,1.776,3.268,1.776,4.063,0,5.044,0Z" transform="matrix(0.966, -0.259, 0.259, 0.966, 130.612, 26.934)"/>
      <path id="路径_27389" data-name="路径 27389" class="cls-20" d="M2.061,11.914H8.129a.861.861,0,0,0,.726-.95A10.363,10.363,0,0,1,7.432,6.169,13.313,13.313,0,0,1,8.854.95.861.861,0,0,0,8.129,0H2.061a.861.861,0,0,0-.726.95A13.966,13.966,0,0,0,0,6.169a10.834,10.834,0,0,0,1.335,4.795S1.66,11.914,2.061,11.914Z" transform="matrix(-0.259, 0.966, -0.966, -0.259, 128.582, 47.082)"/>
      <ellipse id="椭圆_155" data-name="椭圆 155" class="cls-21" cx="1" cy="1.5" rx="1" ry="1.5" transform="translate(221.291 23.752)"/>
      <ellipse id="椭圆_156" data-name="椭圆 156" class="cls-21" cx="1" cy="1.5" rx="1" ry="1.5" transform="translate(216.291 29.752)"/>
      <g id="组_3320" data-name="组 3320" transform="translate(226.829 19.528)">
        <circle id="椭圆_154" data-name="椭圆 154" class="cls-22" cx="1" cy="1" r="1" transform="translate(0.462 0.224)"/>
        <rect id="矩形_1227" data-name="矩形 1227" class="cls-22" width="2.253" height="13.52" rx="1.127" transform="translate(1.85 3.9) rotate(-41)"/>
      </g>
      <rect id="矩形_1228" data-name="矩形 1228" class="cls-21" width="2.253" height="13.52" rx="1.127" transform="translate(222.671 27.935) rotate(-41)"/>
      <rect id="矩形_1229" data-name="矩形 1229" class="cls-21" width="2.18" height="13.081" rx="1.09" transform="translate(218.104 33.817) rotate(-41)"/>
    </g>
  </g>
</svg>
