<svg xmlns="http://www.w3.org/2000/svg" width="20" height="20" viewBox="0 0 20 20">
  <defs>
    <style>
      .cls-1, .cls-3, .cls-4 {
        fill: #fff;
      }

      .cls-1 {
        stroke: #707070;
      }

      .cls-1, .cls-2 {
        opacity: 0;
      }

      .cls-4 {
        stroke: #fff;
        stroke-width: 0.4px;
      }

      .cls-5 {
        stroke: none;
      }

      .cls-6 {
        fill: none;
      }
    </style>
  </defs>
  <g id="ic_button_unsee" transform="translate(-1238 -399)">
    <g id="矩形_1888" data-name="矩形 1888" class="cls-1" transform="translate(1238 399)">
      <rect class="cls-5" width="20" height="20"/>
      <rect class="cls-6" x="0.5" y="0.5" width="19" height="19"/>
    </g>
    <g id="组_4646" data-name="组 4646" transform="translate(1239.98 401)">
      <g id="组_4644" data-name="组 4644">
        <g id="组_4642" data-name="组 4642" class="cls-2">
          <rect id="矩形_942" data-name="矩形 942" class="cls-3" width="16" height="2" rx="1" transform="translate(0 7)"/>
          <rect id="矩形_943" data-name="矩形 943" class="cls-3" width="16" height="2" rx="1" transform="translate(9) rotate(90)"/>
        </g>
        <g id="组_4643" data-name="组 4643" transform="translate(-0.98 1.463)">
          <path id="路径_28916" data-name="路径 28916" class="cls-4" d="M21.873,149.625a8.29,8.29,0,0,1,6.027,2.546,8.882,8.882,0,0,1,1.5,2.1,1.24,1.24,0,0,1,0,1.138,8.882,8.882,0,0,1-1.5,2.1,8.406,8.406,0,0,1-12.054,0,8.882,8.882,0,0,1-1.5-2.1,1.24,1.24,0,0,1,0-1.138,8.882,8.882,0,0,1,1.5-2.1,8.29,8.29,0,0,1,6.027-2.546m0-1.316A9.659,9.659,0,0,0,14.9,151.27a10.251,10.251,0,0,0-1.724,2.411,2.579,2.579,0,0,0,0,2.342,10.251,10.251,0,0,0,1.724,2.4,9.725,9.725,0,0,0,13.949,0,10.251,10.251,0,0,0,1.724-2.411,2.579,2.579,0,0,0,0-2.342,10.251,10.251,0,0,0-1.724-2.411,9.659,9.659,0,0,0-6.974-2.961Z" transform="translate(-12.894 -148.296)"/>
          <path id="路径_28917" data-name="路径 28917" class="cls-4" d="M350.389,348.744a1.645,1.645,0,1,1-1.645,1.645,1.645,1.645,0,0,1,1.645-1.645m0-1.316a2.961,2.961,0,1,0,2.961,2.961A2.961,2.961,0,0,0,350.389,347.429Z" transform="translate(-341.41 -343.846)"/>
        </g>
      </g>
    </g>
    <rect id="矩形_1889" data-name="矩形 1889" class="cls-3" width="1.87" height="22" rx="0.935" transform="matrix(0.616, -0.788, 0.788, 0.616, 1238.361, 402.656)"/>
  </g>
</svg>
