<svg id="ic_chapter_delete" xmlns="http://www.w3.org/2000/svg" width="34" height="34" viewBox="0 0 34 34">
  <defs>
    <style>
      .cls-1, .cls-2 {
        fill: #fff;
      }

      .cls-1 {
        opacity: 0;
      }

      .cls-2, .cls-3 {
        stroke: #979797;
      }

      .cls-3, .cls-5 {
        fill: none;
      }

      .cls-3 {
        stroke-width: 2px;
      }

      .cls-4 {
        stroke: none;
      }
    </style>
  </defs>
  <rect id="矩形_1194" data-name="矩形 1194" class="cls-1" width="34" height="34"/>
  <g id="组_3312" data-name="组 3312" transform="translate(6 6)">
    <g id="矩形_1259" data-name="矩形 1259" class="cls-2" transform="translate(0 4)">
      <rect class="cls-4" width="22" height="2"/>
      <rect class="cls-5" x="0.5" y="0.5" width="21" height="1"/>
    </g>
    <g id="矩形_1260" data-name="矩形 1260" class="cls-2" transform="translate(3 20)">
      <rect class="cls-4" width="16" height="2"/>
      <rect class="cls-5" x="0.5" y="0.5" width="15" height="1"/>
    </g>
    <g id="矩形_1261" data-name="矩形 1261" class="cls-2" transform="translate(19 4) rotate(90)">
      <rect class="cls-4" width="17" height="2"/>
      <rect class="cls-5" x="0.5" y="0.5" width="16" height="1"/>
    </g>
    <g id="矩形_1262" data-name="矩形 1262" class="cls-2" transform="translate(5 4) rotate(90)">
      <rect class="cls-4" width="17" height="2"/>
      <rect class="cls-5" x="0.5" y="0.5" width="16" height="1"/>
    </g>
    <g id="矩形_1263" data-name="矩形 1263" class="cls-2" transform="translate(10 9) rotate(90)">
      <rect class="cls-4" width="7" height="2"/>
      <rect class="cls-5" x="0.5" y="0.5" width="6" height="1"/>
    </g>
    <g id="矩形_1264" data-name="矩形 1264" class="cls-2" transform="translate(14 9) rotate(90)">
      <rect class="cls-4" width="7" height="2"/>
      <rect class="cls-5" x="0.5" y="0.5" width="6" height="1"/>
    </g>
    <g id="矩形_1265" data-name="矩形 1265" class="cls-3" transform="translate(6)">
      <rect class="cls-4" width="10" height="6" rx="2"/>
      <rect class="cls-5" x="1" y="1" width="8" height="4" rx="1"/>
    </g>
  </g>
</svg>
