<svg id="ic_class_invitation" xmlns="http://www.w3.org/2000/svg" xmlns:xlink="http://www.w3.org/1999/xlink" width="40" height="40" viewBox="0 0 40 40">
  <defs>
    <style>
      .cls-1 {
        fill: url(#linear-gradient);
      }

      .cls-2 {
        fill: #fff;
      }

      .cls-3 {
        fill: #5592fe;
      }
    </style>
    <linearGradient id="linear-gradient" x1="0.5" x2="0.809" y2="0.893" gradientUnits="objectBoundingBox">
      <stop offset="0" stop-color="#5592fe"/>
      <stop offset="1" stop-color="#2a77ff"/>
    </linearGradient>
  </defs>
  <path id="路径_27460" data-name="路径 27460" class="cls-1" d="M20,0A20,20,0,1,1,0,20,20,20,0,0,1,20,0Z"/>
  <circle id="椭圆_10" data-name="椭圆 10" class="cls-2" cx="5.541" cy="5.541" r="5.541" transform="translate(14.771 8.781)"/>
  <path id="减去_1" data-name="减去 1" class="cls-2" d="M19.512,8.78H0A7.98,7.98,0,0,1,.767,5.362,8.76,8.76,0,0,1,2.857,2.572,9.848,9.848,0,0,1,5.958.69a10.8,10.8,0,0,1,7.6,0,9.847,9.847,0,0,1,3.1,1.882,8.764,8.764,0,0,1,2.091,2.791,7.979,7.979,0,0,1,.767,3.417Z" transform="translate(10.244 21.951)"/>
  <circle id="椭圆_12" data-name="椭圆 12" class="cls-3" cx="6.829" cy="6.829" r="6.829" transform="translate(21.25 21.875)"/>
  <g id="组_2212" data-name="组 2212" transform="translate(23.125 23.75)">
    <rect id="矩形_967" data-name="矩形 967" class="cls-2" width="10" height="1.429" rx="0.714" transform="translate(0 4.286)"/>
    <rect id="矩形_968" data-name="矩形 968" class="cls-2" width="10" height="1.429" rx="0.714" transform="translate(5.714 0) rotate(90)"/>
  </g>
</svg>
