<svg id="ic_chapter_dowload" xmlns="http://www.w3.org/2000/svg" width="34" height="34" viewBox="0 0 34 34">
  <defs>
    <style>
      .cls-1, .cls-2 {
        fill: #fff;
      }

      .cls-1 {
        opacity: 0;
      }

      .cls-2 {
        stroke: #979797;
      }

      .cls-3 {
        stroke: none;
      }

      .cls-4 {
        fill: none;
      }
    </style>
  </defs>
  <rect id="矩形_1194" data-name="矩形 1194" class="cls-1" width="34" height="34"/>
  <g id="组_3312" data-name="组 3312" transform="translate(6 6)">
    <g id="矩形_1260" data-name="矩形 1260" class="cls-2" transform="translate(3 20)">
      <rect class="cls-3" width="16" height="2"/>
      <rect class="cls-4" x="0.5" y="0.5" width="15" height="1"/>
    </g>
    <g id="矩形_1261" data-name="矩形 1261" class="cls-2" transform="translate(12) rotate(90)">
      <rect class="cls-3" width="15" height="2"/>
      <rect class="cls-4" x="0.5" y="0.5" width="14" height="1"/>
    </g>
    <g id="矩形_1262" data-name="矩形 1262" class="cls-2" transform="translate(4 16) rotate(90)">
      <rect class="cls-3" width="6" height="2"/>
      <rect class="cls-4" x="0.5" y="0.5" width="5" height="1"/>
    </g>
    <g id="矩形_1268" data-name="矩形 1268" class="cls-2" transform="translate(20 16) rotate(90)">
      <rect class="cls-3" width="6" height="2"/>
      <rect class="cls-4" x="0.5" y="0.5" width="5" height="1"/>
    </g>
    <g id="组_3319" data-name="组 3319" transform="translate(-0.172 -5)">
      <g id="矩形_1269" data-name="矩形 1269" class="cls-2" transform="translate(16.829 15.586) rotate(135)">
        <rect class="cls-3" width="8" height="2"/>
        <rect class="cls-4" x="0.5" y="0.5" width="7" height="1"/>
      </g>
      <g id="矩形_1270" data-name="矩形 1270" class="cls-2" transform="translate(6.929 14.172) rotate(45)">
        <rect class="cls-3" width="8" height="2"/>
        <rect class="cls-4" x="0.5" y="0.5" width="7" height="1"/>
      </g>
    </g>
  </g>
</svg>
