<svg xmlns="http://www.w3.org/2000/svg" width="34" height="34" viewBox="0 0 34 34">
  <defs>
    <style>
      .cls-1 {
        fill: #fff;
        opacity: 0;
      }

      .cls-2, .cls-3 {
        fill: #979797;
      }

      .cls-3 {
        stroke: #979797;
        stroke-width: 0.6px;
      }
    </style>
  </defs>
  <g id="ic_chapter_preview" transform="translate(2 3)">
    <rect id="矩形_1194" data-name="矩形 1194" class="cls-1" width="34" height="34" transform="translate(-2 -3)"/>
    <g id="组_4636" data-name="组 4636">
      <path id="路径_28932" data-name="路径 28932" class="cls-2" d="M75.049,87.936H68.061V71.359H82.322v6.888a.779.779,0,0,0,1.559,0V70.579A.78.78,0,0,0,83.1,69.8H67.279a.78.78,0,0,0-.779.779V88.716a.78.78,0,0,0,.779.779h7.768a.779.779,0,0,0,0-1.559ZM81.113,74.8a.78.78,0,0,0-.779-.779H69.912a.779.779,0,1,0,0,1.559H80.334A.78.78,0,0,0,81.113,74.8ZM70,79.536a.779.779,0,0,0,0,1.559h4.421a.779.779,0,1,0,0-1.559Z" transform="translate(-62.421 -65.648)"/>
      <g id="组_4635" data-name="组 4635" transform="translate(13.294 14.721)">
        <path id="路径_28916" data-name="路径 28916" class="cls-3" d="M19.161,149.224A5.787,5.787,0,0,1,23.368,151a6.2,6.2,0,0,1,1.047,1.465.866.866,0,0,1,0,.795,6.2,6.2,0,0,1-1.047,1.465,5.867,5.867,0,0,1-8.413,0,6.2,6.2,0,0,1-1.047-1.465.866.866,0,0,1,0-.795A6.2,6.2,0,0,1,14.955,151a5.787,5.787,0,0,1,4.207-1.777m0-.919a6.742,6.742,0,0,0-4.868,2.067,7.155,7.155,0,0,0-1.2,1.683,1.8,1.8,0,0,0,0,1.635,7.155,7.155,0,0,0,1.2,1.674,6.788,6.788,0,0,0,9.736,0,7.155,7.155,0,0,0,1.2-1.683,1.8,1.8,0,0,0,0-1.635,7.155,7.155,0,0,0-1.2-1.683,6.742,6.742,0,0,0-4.868-2.067Z" transform="translate(-12.894 -148.296)"/>
        <path id="路径_28917" data-name="路径 28917" class="cls-3" d="M349.5,348.347a1.148,1.148,0,1,1-1.148,1.148,1.148,1.148,0,0,1,1.148-1.148m0-.919a2.067,2.067,0,1,0,2.067,2.067A2.067,2.067,0,0,0,349.5,347.429Z" transform="translate(-343.228 -344.928)"/>
      </g>
    </g>
  </g>
</svg>
