<svg id="ic_locking_off" xmlns="http://www.w3.org/2000/svg" width="34" height="34" viewBox="0 0 34 34">
  <defs>
    <style>
      .cls-1, .cls-2, .cls-3 {
        fill: #e0e0e0;
      }

      .cls-1, .cls-2 {
        opacity: 0;
      }

      .cls-2 {
        stroke: #707070;
      }

      .cls-4 {
        stroke: none;
      }

      .cls-5 {
        fill: none;
      }
    </style>
  </defs>
  <rect id="矩形_1194" data-name="矩形 1194" class="cls-1" width="34" height="34"/>
  <g id="组_4654" data-name="组 4654" transform="translate(-795 -259)">
    <g id="矩形_1890" data-name="矩形 1890" class="cls-2" transform="translate(802 266)">
      <rect class="cls-4" width="20" height="20"/>
      <rect class="cls-5" x="0.5" y="0.5" width="19" height="19"/>
    </g>
    <path id="路径_28933" data-name="路径 28933" class="cls-3" d="M172.953,80.821h-9.711V78.137a3.367,3.367,0,0,1,6.734,0,.976.976,0,0,0,1.952,0,5.319,5.319,0,0,0-10.638,0v2.684h-1.025a.979.979,0,0,0-.976.976v9.028a.979.979,0,0,0,.976.976h12.688a.979.979,0,0,0,.976-.976V81.8A.979.979,0,0,0,172.953,80.821Zm-5.563,6.246a.1.1,0,0,0-.1.1v.927c0,.927-.293,1.074-.683,1.074s-.683-.1-.683-1.074v-.976a.1.1,0,0,0-.1-.1,1.136,1.136,0,0,1-.488-.976,1.292,1.292,0,0,1,1.269-1.269,1.26,1.26,0,0,1,1.269,1.269A1.168,1.168,0,0,1,167.39,87.067Z" transform="translate(645.391 193.69)"/>
  </g>
</svg>
