<svg xmlns="http://www.w3.org/2000/svg" width="100" height="100" viewBox="0 0 100 100">
  <defs>
    <style>
      .cls-1 {
        opacity: 0.095;
      }

      .cls-2, .cls-3 {
        fill: #666;
      }

      .cls-2 {
        opacity: 0;
      }
    </style>
  </defs>
  <g id="ic_photo" class="cls-1" transform="translate(-143 -726.631)">
    <rect id="矩形_1114" data-name="矩形 1114" class="cls-2" width="100" height="100" transform="translate(143 726.631)"/>
    <g id="组_2715" data-name="组 2715" transform="translate(148.803 732.433)">
      <path id="减去_19" data-name="减去 19" class="cls-3" d="M86.5,88H1.5A1.5,1.5,0,0,1,0,86.5V1.5A1.5,1.5,0,0,1,1.5,0h85A1.5,1.5,0,0,1,88,1.5v85A1.5,1.5,0,0,1,86.5,88ZM31.435,38.724a3.562,3.562,0,0,0-2.941,1.53L15.691,58.44a3.59,3.59,0,0,0,2.94,5.662h53.03a3.5,3.5,0,0,0,3.047-1.757,3.582,3.582,0,0,0,.02-3.6l-17.6-30.488a3.6,3.6,0,0,0-6.223,0L41.878,43.9l-.74,1.3-.16.26a1.811,1.811,0,0,1-2.92.041l-.06-.08-1.1-1.561-2.521-3.6A3.56,3.56,0,0,0,31.435,38.724Zm1.36-21.6a6.722,6.722,0,1,0,6.722,6.722A6.729,6.729,0,0,0,32.8,17.127Z" transform="translate(0 0)"/>
    </g>
  </g>
</svg>
