<svg xmlns="http://www.w3.org/2000/svg" width="20" height="20" viewBox="0 0 20 20">
  <defs>
    <style>
      .cls-1, .cls-2 {
        fill: #fff;
      }

      .cls-1 {
        stroke: #707070;
        opacity: 0;
      }

      .cls-3 {
        stroke: none;
      }

      .cls-4 {
        fill: none;
      }
    </style>
  </defs>
  <g id="ic_release" transform="translate(2.078 2)">
    <g id="矩形_1225" data-name="矩形 1225" class="cls-1" transform="translate(-2.078 -2)">
      <rect class="cls-3" width="20" height="20"/>
      <rect class="cls-4" x="0.5" y="0.5" width="19" height="19"/>
    </g>
    <path id="路径_33081" data-name="路径 33081" class="cls-2" d="M120.258,96.164a.593.593,0,0,0-.592-.59.575.575,0,0,0-.3.081l-13.238,6.964a.6.6,0,0,0-.318.531.59.59,0,0,0,.326.524l3.435,1.874a.727.727,0,0,0,.267.059.6.6,0,0,0,.533-.325.606.606,0,0,0-.267-.8l-2.4-1.35,9.61-5.075-6.041,7.318a.645.645,0,0,0-.141.384v3.622a.592.592,0,0,0,1.185,0v-3.4l6.434-7.8-1.244,9.93-3.613-1.719a.5.5,0,0,0-.259-.059.593.593,0,0,0-.563.782.564.564,0,0,0,.3.339l4.361,2.051a.5.5,0,0,0,.259.059.623.623,0,0,0,.274-.066.574.574,0,0,0,.311-.435l1.681-12.821v-.074Z" transform="translate(-104.891 -94.574)"/>
  </g>
</svg>
