<svg xmlns="http://www.w3.org/2000/svg" width="30" height="30" viewBox="0 0 30 30">
  <defs>
    <style>
      .cls-1 {
        fill: none;
      }

      .cls-2 {
        fill: #5592fe;
      }
    </style>
  </defs>
  <g id="ic_sort_1" transform="translate(-2 -2)">
    <g id="操作" transform="translate(2 2)">
      <g id="ic_listview">
        <rect id="Rectangle-49" class="cls-1" width="30" height="30"/>
        <path id="路径_27347" data-name="路径 27347" class="cls-2" d="M21.375,12.587h4.051c1.2,0,1.686.716,1.087,1.59l-5.85,8.544a1.229,1.229,0,0,1-2.174,0l-5.85-8.544c-.6-.874-.107-1.59,1.087-1.59h4.052V.916A.911.911,0,0,1,18.686,0h1.781a.9.9,0,0,1,.907.916ZM13.485,3.6a.89.89,0,0,0,.9-.907V.907a.912.912,0,0,0-.9-.907H.9A.89.89,0,0,0,0,.907V2.689A.912.912,0,0,0,.9,3.6Zm-3.579,8.99a.882.882,0,0,0,.883-.907V9.9a.9.9,0,0,0-.883-.907H.883A.882.882,0,0,0,0,9.9v1.781a.9.9,0,0,0,.883.907Zm-3.6,8.99a.882.882,0,0,0,.882-.907V18.888a.89.89,0,0,0-.882-.907H.882A.882.882,0,0,0,0,18.888v1.781a.89.89,0,0,0,.882.907Z" transform="translate(1.46 3.69)"/>
      </g>
    </g>
  </g>
</svg>
