<svg id="ic_sort_2" xmlns="http://www.w3.org/2000/svg" width="30" height="30" viewBox="0 0 30 30">
  <defs>
    <style>
      .cls-1 {
        fill: none;
      }

      .cls-2 {
        fill: #5592fe;
      }
    </style>
  </defs>
  <g id="操作">
    <g id="ic_listview">
      <rect id="Rectangle-49" class="cls-1" width="30" height="30"/>
      <path id="路径_27347" data-name="路径 27347" class="cls-2" d="M21.375,10.788h4.051c1.2,0,1.686-.716,1.087-1.59L20.664.655a1.229,1.229,0,0,0-2.174,0L12.64,9.2c-.6.874-.107,1.59,1.087,1.59h4.052v11.67a.911.911,0,0,0,.907.916h1.781a.9.9,0,0,0,.907-.916Zm-7.89,8.99a.89.89,0,0,1,.9.907v1.781a.912.912,0,0,1-.9.907H.9a.89.89,0,0,1-.9-.907V20.686a.912.912,0,0,1,.9-.907Zm-3.579-8.99a.882.882,0,0,1,.883.907v1.781a.9.9,0,0,1-.883.907H.883A.882.882,0,0,1,0,13.477V11.7a.9.9,0,0,1,.883-.907ZM6.31,1.8a.882.882,0,0,1,.882.907V4.487a.89.89,0,0,1-.882.907H.882A.882.882,0,0,1,0,4.487V2.706A.89.89,0,0,1,.882,1.8Z" transform="translate(1.46 2.935)"/>
    </g>
  </g>
</svg>
