<svg xmlns="http://www.w3.org/2000/svg" width="20" height="20" viewBox="0 0 20 20">
  <defs>
    <style>
      .cls-1 {
        fill: rgba(255,255,255,0);
      }

      .cls-2 {
        fill: #fff;
      }

      .cls-3 {
        fill: #57a9ff;
      }
    </style>
  </defs>
  <g id="ic_wold" transform="translate(-6551 -15958)">
    <g id="组_2689" data-name="组 2689" transform="translate(6551 15958)">
      <rect id="矩形_1112" data-name="矩形 1112" class="cls-1" width="20" height="20" transform="translate(0 0)"/>
    </g>
    <g id="组_2690" data-name="组 2690" transform="translate(6551.909 15958.909)">
      <path id="路径_1575" data-name="路径 1575" class="cls-2" d="M612.665,561.741h-.257a.015.015,0,0,1-.015-.015v-.257a.014.014,0,0,1,.014-.015h.257a.014.014,0,0,1,.015.015v.257A.015.015,0,0,1,612.665,561.741Zm-.185-.232a.046.046,0,1,0,.046.046A.046.046,0,0,0,612.481,561.508Zm.089.063-.02.026-.047-.04-.082.1.023.018.061-.077.05.04.02-.02.054.049.023-.021Z" transform="translate(-601.517 -551.49)"/>
      <path id="路径_1576" data-name="路径 1576" class="cls-3" d="M17.323,18.693H.96a.908.908,0,0,1-.909-.91V1.42A.907.907,0,0,1,.96.512H17.323a.908.908,0,0,1,.909.908V17.785a.908.908,0,0,1-.909.909ZM14.14,5.058H12.324v6.726L9.6,8.238,8.233,9.6,6.414,11.874V5.058H4.6v9.088H6.87l2.5-3.123,2.5,3.123h2.272V5.058Z" transform="translate(-0.051 -0.512)"/>
    </g>
  </g>
</svg>
