<svg xmlns="http://www.w3.org/2000/svg" xmlns:xlink="http://www.w3.org/1999/xlink" width="214" height="106" viewBox="0 0 214 106">
  <defs>
    <style>
      .cls-1 {
        fill: url(#linear-gradient);
      }

      .cls-2 {
        clip-path: url(#clip-path);
      }

      .cls-3, .cls-4 {
        fill: #32ad70;
      }

      .cls-3 {
        opacity: 0.602;
      }

      .cls-4 {
        opacity: 0.697;
      }

      .cls-5 {
        fill: #9df5c9;
        opacity: 0.201;
      }

      .cls-6 {
        filter: url(#路径_28726);
      }
    </style>
    <linearGradient id="linear-gradient" x1="0.5" x2="1" y2="1" gradientUnits="objectBoundingBox">
      <stop offset="0" stop-color="#33d182"/>
      <stop offset="1" stop-color="#29b26e"/>
    </linearGradient>
    <filter id="路径_28726" x="-30" y="-28" width="274" height="166" filterUnits="userSpaceOnUse">
      <feOffset dy="2" input="SourceAlpha"/>
      <feGaussianBlur stdDeviation="10" result="blur"/>
      <feFlood flood-color="#61d6f9" flood-opacity="0.302"/>
      <feComposite operator="in" in2="blur"/>
      <feComposite in="SourceGraphic"/>
    </filter>
    <clipPath id="clip-path">
      <g class="cls-6" transform="matrix(1, 0, 0, 1, 0, 0)">
        <path id="路径_28726-2" data-name="路径 28726" class="cls-1" d="M8.025,0h197.95A7.988,7.988,0,0,1,214,7.95v90.1a7.988,7.988,0,0,1-8.025,7.95H8.025A7.988,7.988,0,0,1,0,98.05V7.95A7.988,7.988,0,0,1,8.025,0Z" transform="translate(1666 372)"/>
      </g>
    </clipPath>
  </defs>
  <g id="icon_course_team" transform="translate(-1425 -2424)">
    <path id="路径_28723" data-name="路径 28723" class="cls-1" d="M8.025,0H214V106H0V0Z" transform="translate(1425 2424)"/>
    <g id="蒙版组_36" data-name="蒙版组 36" class="cls-2" transform="translate(-241 2052)">
      <g id="组_4500" data-name="组 4500" transform="translate(80.879 -210.459) rotate(7)">
        <path id="减去_70" data-name="减去 70" class="cls-3" d="M104.2,82H.39A33.7,33.7,0,0,1,0,76.875,33.269,33.269,0,0,1,33.291,43.563,21.778,21.778,0,0,1,17.9,6.379,21.775,21.775,0,1,1,41.764,41.851a21.62,21.62,0,0,1-8.473,1.712A33.183,33.183,0,0,1,57.135,53.626a28.689,28.689,0,0,1,18.016-7.185,18.568,18.568,0,1,1,2.072,0A28.822,28.822,0,0,1,105,75.251,28.979,28.979,0,0,1,104.2,82Z" transform="translate(1775 396)"/>
        <path id="路径_28725" data-name="路径 28725" class="cls-3" d="M21.744,0A21.781,21.781,0,1,1,0,21.781,21.762,21.762,0,0,1,21.744,0Z" transform="translate(1786.631 396.002)"/>
        <path id="减去_71" data-name="减去 71" class="cls-4" d="M66.115,38.438H.393A33.717,33.717,0,0,1,0,33.311a33.253,33.253,0,1,1,66.507,0,33.6,33.6,0,0,1-.392,5.125v0h0Z" transform="translate(1775.12 439.563)"/>
        <path id="减去_72" data-name="减去 72" class="cls-5" d="M15210.5,20472a7.5,7.5,0,0,1-7.484-7h14.963A7.511,7.511,0,0,1,15210.5,20472Z" transform="translate(-13402 -20040)"/>
        <path id="减去_73" data-name="减去 73" class="cls-5" d="M15208.5,20470a5.553,5.553,0,0,1-3.765-1.453,5.282,5.282,0,0,1-1.719-3.549h10.963A5.447,5.447,0,0,1,15208.5,20470Z" transform="translate(-13357 -20035)"/>
      </g>
    </g>
  </g>
</svg>
