<svg id="icon_studyreport" xmlns="http://www.w3.org/2000/svg" width="50" height="50" viewBox="0 0 50 50">
  <defs>
    <style>
      .cls-1 {
        fill: #fc0;
      }
    </style>
  </defs>
  <g id="组_4214" data-name="组 4214">
    <path id="路径_28640" data-name="路径 28640" class="cls-1" d="M40.55,20.475l-9.9,9.9a2.256,2.256,0,0,1-3.2,0l-7.275-7.25L10.65,32.55a2.263,2.263,0,1,1-3.175-3.225L18.625,18.3a2.279,2.279,0,0,1,3.2,0l7.25,7.25,8.3-8.3a2.263,2.263,0,1,1,3.175,3.225M45.475,0H4.525A4.524,4.524,0,0,0,0,4.525v40.95A4.524,4.524,0,0,0,4.525,50h40.95A4.524,4.524,0,0,0,50,45.475V4.525A4.524,4.524,0,0,0,45.475,0"/>
  </g>
</svg>
