<svg xmlns="http://www.w3.org/2000/svg" xmlns:xlink="http://www.w3.org/1999/xlink" width="214" height="106" viewBox="0 0 214 106">
  <defs>
    <style>
      .cls-1 {
        fill: url(#linear-gradient);
      }

      .cls-2 {
        clip-path: url(#clip-path);
      }

      .cls-3 {
        fill: #6842bf;
        opacity: 0.225;
      }

      .cls-4 {
        fill: url(#linear-gradient-3);
      }

      .cls-5 {
        filter: url(#路径_28707);
      }
    </style>
    <linearGradient id="linear-gradient" x1="0.5" x2="1" y2="1" gradientUnits="objectBoundingBox">
      <stop offset="0" stop-color="#b8a5ff"/>
      <stop offset="1" stop-color="#b68fe3"/>
    </linearGradient>
    <filter id="路径_28707" x="-30" y="-28" width="274" height="166" filterUnits="userSpaceOnUse">
      <feOffset dy="2" input="SourceAlpha"/>
      <feGaussianBlur stdDeviation="10" result="blur"/>
      <feFlood flood-color="#b8a5ff"/>
      <feComposite operator="in" in2="blur"/>
      <feComposite in="SourceGraphic"/>
    </filter>
    <clipPath id="clip-path">
      <g class="cls-5" transform="matrix(1, 0, 0, 1, 0, 0)">
        <path id="路径_28707-2" data-name="路径 28707" class="cls-1" d="M10.031,0H203.969A9.985,9.985,0,0,1,214,9.938V106H10.031A9.985,9.985,0,0,1,0,96.062V9.938A9.985,9.985,0,0,1,10.031,0Z" transform="translate(570 372)"/>
      </g>
    </clipPath>
    <linearGradient id="linear-gradient-3" x1="0.5" x2="0.5" y2="1" gradientUnits="objectBoundingBox">
      <stop offset="0" stop-color="#c6a7ff"/>
      <stop offset="1" stop-color="#b898eb"/>
    </linearGradient>
  </defs>
  <g id="icon_course_exercises" transform="translate(-346 -2424)">
    <g id="组_4502" data-name="组 4502" transform="translate(-300 -208)">
      <path id="路径_28704" data-name="路径 28704" class="cls-1" d="M10.031,0H214V106H0V0Z" transform="translate(646 2632)"/>
      <g id="蒙版组_31" data-name="蒙版组 31" class="cls-2" transform="translate(76 2260)">
        <g id="组_4496" data-name="组 4496" transform="translate(8.046 3.525)">
          <path id="路径_28705" data-name="路径 28705" class="cls-3" d="M26.748,11.422h-8a1.648,1.648,0,0,0-1.728,1.557V57.272l5.723-5.727,5.727,5.735V12.971a1.648,1.648,0,0,0-1.728-1.557Zm51.827,5.866h-.036a2.434,2.434,0,0,0-1.191-.544,10.437,10.437,0,0,1,0-11.843,2.457,2.457,0,0,0-.3-4.885h-.183c-.282,0-.568.036-.85.064A7.343,7.343,0,0,0,74.992,0H7.379A7.379,7.379,0,0,0,0,7.395V14.23a7.379,7.379,0,0,0,7.379,7.379h5.258V9.269a2.911,2.911,0,0,1,3.054-2.748H29.786a2.911,2.911,0,0,1,3.05,2.748V21.6h42.1a6.994,6.994,0,0,0,1.041-.083,1.855,1.855,0,0,1-.294-.068c.226.028.453.064.683.079a2.458,2.458,0,0,0,3.03-2.383,2.427,2.427,0,0,0-.874-1.867h.024ZM0,33.594v6.839a7.379,7.379,0,0,0,7.379,7.379h5.258V26.227H7.379A7.379,7.379,0,0,0,0,33.6Zm78.579,9.893h-.028a2.419,2.419,0,0,0-1.191-.552,10.437,10.437,0,0,1,0-11.843,2.444,2.444,0,0,0-.318-4.857h-.183a6.913,6.913,0,0,0-.874.056,7.248,7.248,0,0,0-1-.075h-42.1V47.808h42.1a6.993,6.993,0,0,0,1.041-.083,1.725,1.725,0,0,1-.322-.075c.234.028.473.064.711.079a2.446,2.446,0,0,0,2.164-4.245Zm0,26.211h-.028a2.434,2.434,0,0,0-1.191-.544c-2.456-3.565,3.165-3.934,4.041-9.021.439-.069-3.19-3.078-2.849-3.362h0a2.43,2.43,0,0,0,.874-1.863,2.458,2.458,0,0,0-2.383-2.45h-.183a6.914,6.914,0,0,0-.874.056,7.379,7.379,0,0,0-1-.075H7.379A7.379,7.379,0,0,0,0,59.8v6.835a7.379,7.379,0,0,0,7.379,7.379H74.973a7.847,7.847,0,0,0,1.041-.083,1.466,1.466,0,0,1-.322-.079c.234.036.473.068.711.083a2.458,2.458,0,0,0,3.03-2.383,2.43,2.43,0,0,0-.869-1.862Z" transform="translate(707.584 401.82) rotate(8)"/>
          <path id="路径_28706" data-name="路径 28706" class="cls-4" d="M3.57,0H17.852a3.582,3.582,0,0,1,3.57,3.594V60.2L11.189,47.259,0,60.2V3.594A3.582,3.582,0,0,1,3.57,0Z" transform="translate(718.592 409.647) rotate(8)"/>
        </g>
      </g>
    </g>
  </g>
</svg>
