<svg xmlns="http://www.w3.org/2000/svg" width="20" height="20" viewBox="0 0 20 20">
  <defs>
    <style>
      .cls-1 {
        fill: none;
      }

      .cls-2, .cls-3 {
        stroke: none;
      }

      .cls-3 {
        fill: #999;
      }
    </style>
  </defs>
  <g id="icon_radio_n" class="cls-1">
    <path class="cls-2" d="M2,0H18a2,2,0,0,1,2,2V18a2,2,0,0,1-2,2H2a2,2,0,0,1-2-2V2A2,2,0,0,1,2,0Z"/>
    <path class="cls-3" d="M 2 2 L 2 18 L 18 18 L 18 2 L 2 2 M 2 0 L 18 0 C 19.10457038879395 0 20 0.8954296112060547 20 2 L 20 18 C 20 19.10457038879395 19.10457038879395 20 18 20 L 2 20 C 0.8954296112060547 20 0 19.10457038879395 0 18 L 0 2 C 0 0.8954296112060547 0.8954296112060547 0 2 0 Z"/>
  </g>
</svg>
