<svg xmlns="http://www.w3.org/2000/svg" xmlns:xlink="http://www.w3.org/1999/xlink" width="214" height="106" viewBox="0 0 214 106">
  <defs>
    <style>
      .cls-1 {
        fill: url(#linear-gradient);
      }

      .cls-2 {
        clip-path: url(#clip-path);
      }

      .cls-3 {
        fill: #de4244;
      }

      .cls-4 {
        fill: #f96164;
      }

      .cls-5 {
        fill: #e54547;
      }

      .cls-6 {
        filter: url(#路径_28719);
      }
    </style>
    <linearGradient id="linear-gradient" x1="0.5" x2="1" y2="1" gradientUnits="objectBoundingBox">
      <stop offset="0" stop-color="#f96164"/>
      <stop offset="1" stop-color="#e64545"/>
    </linearGradient>
    <filter id="路径_28719" x="-30" y="-28" width="274" height="166" filterUnits="userSpaceOnUse">
      <feOffset dy="2" input="SourceAlpha"/>
      <feGaussianBlur stdDeviation="10" result="blur"/>
      <feFlood flood-color="#f96164" flood-opacity="0.302"/>
      <feComposite operator="in" in2="blur"/>
      <feComposite in="SourceGraphic"/>
    </filter>
    <clipPath id="clip-path">
      <g class="cls-6" transform="matrix(1, 0, 0, 1, 0, 0)">
        <path id="路径_28719-2" data-name="路径 28719" class="cls-1" d="M8.025,0h197.95A7.988,7.988,0,0,1,214,7.95v90.1a7.988,7.988,0,0,1-8.025,7.95H8.025A7.988,7.988,0,0,1,0,98.05V7.95A7.988,7.988,0,0,1,8.025,0Z" transform="translate(1118 372)"/>
      </g>
    </clipPath>
  </defs>
  <g id="icon_course_class" transform="translate(-877 -2424)">
    <path id="路径_28718" data-name="路径 28718" class="cls-1" d="M8.025,0H214V106H0V0Z" transform="translate(877 2424)"/>
    <g id="蒙版组_34" data-name="蒙版组 34" class="cls-2" transform="translate(-241 2052)">
      <g id="组_4498" data-name="组 4498" transform="translate(78.955 -165.311) rotate(8)">
        <rect id="矩形_1804" data-name="矩形 1804" class="cls-3" width="82" height="51" rx="5" transform="translate(1244 417)"/>
        <rect id="矩形_1805" data-name="矩形 1805" class="cls-3" width="25" height="10" rx="5" transform="translate(1279 400) rotate(90)"/>
        <rect id="矩形_1806" data-name="矩形 1806" class="cls-3" width="25" height="10" rx="5" transform="translate(1302 400) rotate(90)"/>
        <rect id="矩形_1807" data-name="矩形 1807" class="cls-4" width="42" height="9" rx="4.5" transform="translate(1266 431)"/>
        <rect id="矩形_1808" data-name="矩形 1808" class="cls-5" width="83" height="10" rx="5" transform="translate(1253 400)"/>
        <rect id="矩形_1809" data-name="矩形 1809" class="cls-4" width="42" height="9" rx="4.5" transform="translate(1266 447)"/>
      </g>
    </g>
  </g>
</svg>
