<svg xmlns="http://www.w3.org/2000/svg" width="34" height="34" viewBox="0 0 34 34">
  <defs>
    <style>
      .cls-1 {
        fill: #fff;
        opacity: 0;
      }

      .cls-2 {
        fill: none;
      }

      .cls-3, .cls-4 {
        stroke: none;
      }

      .cls-4 {
        fill: #979797;
      }
    </style>
  </defs>
  <g id="icon_continue" transform="translate(0.142)">
    <rect id="矩形_1194" data-name="矩形 1194" class="cls-1" width="34" height="34" transform="translate(-0.142)"/>
    <g id="多边形_6" data-name="多边形 6" class="cls-2" transform="translate(26.858 6) rotate(90)">
      <path class="cls-3" d="M10.147,1.4a1,1,0,0,1,1.707,0L21.07,16.479A1,1,0,0,1,20.217,18H1.783A1,1,0,0,1,.93,16.479Z"/>
      <path class="cls-4" d="M 10.99999618530273 3.83545970916748 L 3.566112518310547 15.99999618530273 L 18.43388366699219 15.99999618530273 L 10.99999618530273 3.83545970916748 M 11 0.9177322387695312 C 11.32915782928467 0.9177322387695312 11.65831470489502 1.077245712280273 11.85328006744385 1.396276473999023 L 21.07022094726562 16.47854614257812 C 21.47743988037109 17.14490699768066 20.99786949157715 17.99999618530273 20.21693992614746 17.99999618530273 L 1.783060073852539 17.99999618530273 C 1.002130508422852 17.99999618530273 0.5225601196289062 17.14490699768066 0.9297695159912109 16.47854614257812 L 10.14671993255615 1.396276473999023 C 10.34168529510498 1.077245712280273 10.67084217071533 0.9177322387695312 11 0.9177322387695312 Z"/>
    </g>
  </g>
</svg>
