<svg xmlns="http://www.w3.org/2000/svg" xmlns:xlink="http://www.w3.org/1999/xlink" width="214" height="106" viewBox="0 0 214 106">
  <defs>
    <style>
      .cls-1 {
        fill: url(#linear-gradient);
      }

      .cls-2 {
        clip-path: url(#clip-path);
      }

      .cls-3 {
        fill: #3c75dc;
        opacity: 0.999;
      }

      .cls-4 {
        fill: #4985f2;
        opacity: 0.465;
      }

      .cls-5 {
        fill: #ccdeff;
        opacity: 0.258;
      }

      .cls-6 {
        filter: url(#矩形_1797);
      }

      .cls-7 {
        filter: url(#路径_28703);
      }
    </style>
    <linearGradient id="linear-gradient" x1="0.5" x2="0.971" y2="0.957" gradientUnits="objectBoundingBox">
      <stop offset="0" stop-color="#5592fe"/>
      <stop offset="1" stop-color="#3972d9"/>
    </linearGradient>
    <filter id="路径_28703" x="-30" y="-28" width="274" height="166" filterUnits="userSpaceOnUse">
      <feOffset dy="2" input="SourceAlpha"/>
      <feGaussianBlur stdDeviation="10" result="blur"/>
      <feFlood flood-color="#5592fe"/>
      <feComposite operator="in" in2="blur"/>
      <feComposite in="SourceGraphic"/>
    </filter>
    <clipPath id="clip-path">
      <g class="cls-7" transform="matrix(1, 0, 0, 1, 0, 0)">
        <path id="路径_28703-2" data-name="路径 28703" class="cls-1" d="M10.031,0H203.969A9.985,9.985,0,0,1,214,9.938V96.062A9.985,9.985,0,0,1,203.969,106H10.031A9.985,9.985,0,0,1,0,96.062V9.938A9.985,9.985,0,0,1,10.031,0Z" transform="translate(296 372)"/>
      </g>
    </clipPath>
    <filter id="矩形_1797" x="131.168" y="23.748" width="91.832" height="102.636" filterUnits="userSpaceOnUse">
      <feOffset dy="3" input="SourceAlpha"/>
      <feGaussianBlur stdDeviation="3" result="blur-2"/>
      <feFlood flood-opacity="0.051"/>
      <feComposite operator="in" in2="blur-2"/>
      <feComposite in="SourceGraphic"/>
    </filter>
  </defs>
  <g id="icon_course_correction" transform="translate(-372 -2632)">
    <path id="路径_28702" data-name="路径 28702" class="cls-1" d="M10.031,0H214V106H0V0Z" transform="translate(372 2632)"/>
    <g id="蒙版组_30" data-name="蒙版组 30" class="cls-2" transform="translate(76 2260)">
      <g id="组_4495" data-name="组 4495" transform="translate(11.046 12.662)">
        <g id="组_4494" data-name="组 4494" transform="matrix(0.966, 0.259, -0.259, 0.966, 443.844, 389.086)">
          <g class="cls-6" transform="matrix(0.97, -0.26, 0.26, 0.97, -161.17, 12.39)">
            <rect id="矩形_1797-2" data-name="矩形 1797" class="cls-3" width="57.055" height="72.334" rx="4" transform="matrix(0.97, 0.26, -0.26, 0.97, 158.89, 29.75)"/>
          </g>
          <rect id="矩形_1798" data-name="矩形 1798" class="cls-4" width="42.089" height="6.613" rx="3.306" transform="translate(7.171 13.258)"/>
          <rect id="矩形_1799" data-name="矩形 1799" class="cls-4" width="31.179" height="6.613" rx="3.306" transform="translate(7.396 26.57)"/>
          <rect id="矩形_1800" data-name="矩形 1800" class="cls-4" width="31.179" height="6.613" rx="3.306" transform="translate(7.171 39.448)"/>
        </g>
        <path id="联合_18" data-name="联合 18" class="cls-5" d="M5.44,17.615a3.037,3.037,0,0,1-.684-.814L.407,9.267A3.045,3.045,0,0,1,5.681,6.224l3.087,5.347L28.1.41a3.044,3.044,0,1,1,3.045,5.273L9.3,18.3a3.044,3.044,0,0,1-3.856-.681Z" transform="translate(451.038 443.301)"/>
      </g>
    </g>
  </g>
</svg>
