<svg xmlns="http://www.w3.org/2000/svg" width="50" height="50" viewBox="0 0 50 50">
  <defs>
    <style>
      .cls-1 {
        fill: #fff;
        stroke: #707070;
        opacity: 0;
      }

      .cls-2 {
        fill: #77a9fb;
      }

      .cls-3 {
        fill: #33d182;
      }

      .cls-4 {
        fill: #ffbc13;
      }

      .cls-5 {
        fill: #f96164;
      }

      .cls-6 {
        stroke: none;
      }

      .cls-7 {
        fill: none;
      }
    </style>
  </defs>
  <g id="icon_grouping" transform="translate(-1219 -159)">
    <g id="矩形_1739" data-name="矩形 1739" class="cls-1" transform="translate(1219 159)">
      <rect class="cls-6" width="50" height="50"/>
      <rect class="cls-7" x="0.5" y="0.5" width="49" height="49"/>
    </g>
    <g id="组_4326" data-name="组 4326" transform="translate(-4 -1)">
      <path id="路径_28641" data-name="路径 28641" class="cls-2" d="M16.667,64H33.333V77.333H16.667ZM20,97.333H30v13.333H20Zm-20,0H10v13.333H0Zm40,0H50v13.333H40Zm-33.333-10H23.333V94h3.333V87.333H43.333V94h3.333V84h-20V80.667H23.333V84h-20V94H6.667Z" transform="translate(1223 98)"/>
      <path id="路径_28642" data-name="路径 28642" class="cls-3" d="M0,0H10V14H0Z" transform="translate(1263 195)"/>
      <rect id="矩形_1716" data-name="矩形 1716" class="cls-4" width="10" height="14" transform="translate(1243 195)"/>
      <rect id="矩形_1717" data-name="矩形 1717" class="cls-5" width="10" height="14" transform="translate(1223 195)"/>
    </g>
  </g>
</svg>
