<svg id="iv_visual_off" xmlns="http://www.w3.org/2000/svg" width="34" height="34" viewBox="0 0 34 34">
  <defs>
    <style>
      .cls-1 {
        fill: #fff;
        opacity: 0;
      }

      .cls-2 {
        fill: #2a77fb;
      }
    </style>
  </defs>
  <rect id="矩形_1194" data-name="矩形 1194" class="cls-1" width="34" height="34"/>
  <path id="减去_76" data-name="减去 76" class="cls-2" d="M14400.427,16010.794A12.293,12.293,0,0,1,14389,16003a12.4,12.4,0,0,1,3.483-4.867l3.072,3.072a5.2,5.2,0,0,0,6.671,6.671l2.237,2.236A12.2,12.2,0,0,1,14400.427,16010.794Zm7.673-2.7h0l-2.942-2.944a5.15,5.15,0,0,0,.467-2.152,5.2,5.2,0,0,0-5.2-5.2,5.133,5.133,0,0,0-2.15.466l-2.248-2.248a12.287,12.287,0,0,1,15.831,6.979,12.382,12.382,0,0,1-3.759,5.1Zm-7.631-1.978h-.042a3.12,3.12,0,0,1-3.114-3.118.112.112,0,0,1,0-.019v-.018l3.153,3.153Zm3.036-2.619h0l-3.575-3.577a3.119,3.119,0,0,1,3.617,3.078,3.171,3.171,0,0,1-.04.5Z" transform="translate(-14383.172 -15986.167)"/>
  <rect id="矩形_1894" data-name="矩形 1894" class="cls-2" width="2" height="25" rx="1" transform="translate(7 8.414) rotate(-45)"/>
</svg>
